<svg width="99" height="90" viewBox="0 0 99 90" fill="none" xmlns="http://www.w3.org/2000/svg">
<g clip-path="url(#clip0_108_129)">
<path d="M98.5 68.3656C82.4904 95.3489 43.8659 97.3786 24.4963 72.8071C4.83719 48.0386 16.588 11.0321 47.069 1.92227C65.7268 -3.92809 87.5153 3.94601 97.6675 20.4106L96.5817 19.0137C96.3223 18.6615 95.7553 17.9749 95.4537 17.6526C94.7902 16.8646 93.7888 15.79 93.0408 15.0736C92.3652 14.3513 91.1949 13.3484 90.459 12.6678C90.0126 12.3037 88.8303 11.3664 88.396 11.0142C87.9436 10.668 86.713 9.83816 86.2425 9.49191C85.7599 9.18149 84.475 8.38751 84.0105 8.08902C73.2188 1.7372 59.6945 0.256705 47.7748 4.14301C13.6021 15.4736 7.07516 60.1333 36.7237 80.4723C57.0102 94.2684 84.8912 88.5016 98.5 68.3656Z" fill="#270722"/>
<path d="M0.5 40.2242C11.4787 39.0422 22.4815 38.7735 33.4964 38.7318C44.5174 38.7676 55.5142 39.0362 66.4929 40.2242C55.5142 41.4122 44.5113 41.6808 33.4964 41.7166C22.4755 41.6748 11.4787 41.4062 0.5 40.2242Z" fill="#270722"/>
<path d="M0.5 56.6888C11.4787 55.5068 22.4815 55.2381 33.4964 55.1964C44.5174 55.2322 55.5142 55.5008 66.4929 56.6888C55.5142 57.8768 44.5113 58.1454 33.4964 58.1812C22.4755 58.1394 11.4787 57.8708 0.5 56.6888Z" fill="#270722"/>
</g>
<defs>
<clipPath id="clip0_108_129">
<rect width="98" height="90" fill="white" transform="translate(0.5)"/>
</clipPath>
</defs>
</svg>
