<svg width="89" height="90" viewBox="0 0 89 90" fill="none" xmlns="http://www.w3.org/2000/svg">
<g clip-path="url(#clip0_108_137)">
<path d="M88.995 45.0051C88.6978 84.8847 41.752 104.842 13.2893 77.1378C-4.43308 59.8423 -4.43812 30.1578 13.2893 12.8623C41.747 -14.8524 88.7079 5.1256 88.995 45V45.0051ZM88.995 45.0051C89.1713 27.4856 77.9273 10.6736 61.7464 4.39264C33.4903 -7.08513 2.35262 14.2875 2.45841 45.0051C2.35262 75.7279 33.4802 97.1005 61.7464 85.6176C77.9273 79.3316 89.1713 62.5246 88.995 45V45.0051Z" fill="#270722"/>
<path d="M45.097 13.2949C46.3715 24.5131 46.4924 35.8127 46.2506 47.0818L45.097 45.9162C48.6485 46.0129 52.2706 46.1961 55.8221 46.4455C57.9026 46.6084 60.1948 46.812 62.2552 47.0818C60.1948 47.3617 57.8976 47.545 55.8221 47.718C51.8978 47.998 47.9029 48.1812 43.9786 48.283L43.9484 47.0869C43.7066 35.8127 43.8224 24.5131 45.102 13.3L45.097 13.2949Z" fill="#270722"/>
</g>
<defs>
<clipPath id="clip0_108_137">
<rect width="89" height="90" fill="white"/>
</clipPath>
</defs>
</svg>
