<svg width="50" height="50" viewBox="0 0 50 50" fill="none" xmlns="http://www.w3.org/2000/svg">
<g clip-path="url(#clip0_134_457)">
<path d="M25.4693 49.9997C24.8397 46.3361 24.1851 42.5003 25.2557 38.8397C26.3153 35.1585 29.1279 32.2627 32.3843 30.6484C35.5964 29.0078 39.1828 28.3656 42.4226 26.906C47.898 24.6115 49.3709 19.4124 48.744 13.6411C47.9036 6.36651 43.2963 -0.94024 35.5187 2.09281C30.6618 3.98736 27.2029 8.64348 25.4499 13.6791L24.8008 15.5503C23.536 11.5131 21.6138 7.51375 18.5238 4.74052C14.732 1.17326 8.8988 -0.233794 5.14034 4.15376C1.75912 8.08008 0.502599 14.1608 1.47064 19.3131C3.62032 30.3302 16.5433 26.4652 22.6373 34.6973C25.7384 38.8834 27.2057 44.9028 25.4693 49.9968V49.9997ZM25.4693 49.9997C27.2667 44.1438 24.6871 36.2065 19.833 32.759C17.6639 31.1797 15.1453 30.3331 12.6101 29.5712C9.19282 28.5261 5.42327 27.6737 2.88249 24.7574C-0.809395 20.3932 -0.529244 13.3784 1.3486 8.20852C3.57039 2.14243 8.41894 -1.63209 14.6461 0.69451C19.9273 2.69124 23.5776 7.82903 25.4527 13.177H24.1518C26.5594 6.13881 32.9446 -0.989866 40.6446 0.166136C48.1116 1.67244 51.0518 12.3188 49.6705 19.2664C47.7926 28.7801 39.4796 28.1291 32.6728 31.2935C29.4913 32.759 26.7314 35.4446 25.608 38.9593C24.468 42.512 24.995 46.3566 25.4721 50.0027L25.4693 49.9997Z" fill="#270722"/>
</g>
<defs>
<clipPath id="clip0_134_457">
<rect width="50" height="50" fill="white"/>
</clipPath>
</defs>
</svg>
