<svg width="107" height="90" viewBox="0 0 107 90" fill="none" xmlns="http://www.w3.org/2000/svg">
<g clip-path="url(#clip0_108_110)">
<path d="M106.194 80.6045C106.274 86.8196 100.76 91.5785 95.6159 89.5107C88.3301 86.6158 88.3251 74.5874 95.6159 71.6925C100.765 69.6246 106.279 74.3894 106.199 80.6045H106.194ZM106.194 80.6045C106.284 76.0553 102.637 72.1759 98.7835 72.7118C90.607 73.9409 90.607 87.2798 98.7835 88.5088C102.637 89.0389 106.279 85.1595 106.194 80.6045Z" fill="#270722"/>
<path d="M19.9158 80.6045C19.9959 86.8196 14.4815 91.5785 9.33743 89.5107C2.05165 86.6158 2.04664 74.5874 9.33743 71.6925C14.4865 69.6246 20.0009 74.3894 19.9208 80.6045H19.9158ZM19.9158 80.6045C20.0059 76.0553 16.358 72.1759 12.5049 72.7118C4.32845 73.9409 4.32845 87.2798 12.5049 88.5088C16.358 89.0389 20.0009 85.1595 19.9158 80.6045Z" fill="#270722"/>
<path d="M106.194 70.8595C72.2174 71.3721 35.193 71.9604 1.256 72.141H0.160127V70.8537L0.0550437 36.1549L0 1.45622V0H1.25099C34.1321 0.0291243 73.3132 0.180571 106.194 0.524238L107 0.530063L106.99 1.45039C106.905 20.8705 106.375 51.218 106.189 70.8537L106.194 70.8595ZM106.194 70.8595C105.879 51.2122 105.614 20.8705 105.394 1.45622L106.194 2.38819C93.104 2.53964 66.8081 2.70856 53.7227 2.77846C40.6573 2.84836 14.3214 2.89496 1.25099 2.91243L2.50199 1.45622C2.517 18.7561 2.40691 53.5655 2.35187 70.8595L1.25099 69.578C35.1379 69.7761 72.2174 70.3469 106.189 70.8595H106.194Z" fill="#270722"/>
<path d="M103.722 7.80531H70.7662V40.4013H103.722V7.80531Z" fill="#FCFCFC"/>
<path d="M103.727 40.4013C94.3349 40.7857 80.0636 41.4614 70.7712 41.5895L69.7754 41.6128C69.6503 36.4112 69.6553 29.3748 69.5752 24.1033L69.5202 7.80532V6.34328C74.8695 6.3957 81.9451 6.35493 87.2493 6.4423C92.4834 6.52967 99.504 6.59375 104.673 6.74519C104.583 16.7115 104.038 30.3243 103.727 40.4013ZM103.727 40.4013C103.402 31.0407 102.962 17.0377 102.797 7.80532L103.727 8.88874C100.98 8.94117 98.233 9.02854 95.4858 9.05766C87.8097 9.19164 78.4423 9.23824 70.7662 9.26153L72.0172 7.80532C72.0022 13.2166 71.9621 27.0216 71.8821 32.2523C71.8521 34.9667 71.8421 37.6869 71.787 40.4013L70.7662 39.213C79.9135 39.3994 94.47 39.9935 103.722 40.4013H103.727Z" fill="#270722"/>
<path d="M102.486 30.8019C102.511 34.1745 101.611 41.7526 97.3323 39.813C92.6536 36.7258 92.6436 24.878 97.3323 21.785C101.641 19.8744 102.501 27.3943 102.486 30.8019ZM102.486 30.8019C102.461 28.2739 101.931 25.5187 100.39 23.6839C99.7793 22.95 98.8035 22.5597 98.1079 23.2936C95.736 25.5537 95.5009 37.4772 98.7835 38.7004C101.461 38.7237 102.541 33.3182 102.486 30.7961V30.8019Z" fill="#270722"/>
<path d="M85.0276 21.22C85.0476 24.1499 84.5272 32.5785 80.4589 30.0738C76.5508 26.6604 76.5408 15.7737 80.4589 12.3604C84.5372 9.84985 85.0476 18.2843 85.0276 21.22ZM85.0276 21.22C84.9975 18.7852 84.5822 16.164 83.2812 14.2301C82.8108 13.5312 81.9601 12.8963 81.3897 13.7467C79.6233 15.9252 79.3481 27.7613 81.9051 29.1069C82.4105 29.2059 82.9459 28.6991 83.2812 28.2156C84.5822 26.276 84.9925 23.6548 85.0226 21.2258L85.0276 21.22Z" fill="#270722"/>
<path d="M88.1451 40.6517C87.6046 36.9529 85.2027 33.1435 81.9051 33.3299C78.8427 33.557 76.9161 37.2617 76.8411 40.6517L75.6651 39.2829C79.6683 39.4227 84.0868 40.1158 88.1451 40.6517ZM88.1451 40.6517C83.6865 41.4439 79.1029 41.9623 74.5142 42.0614L74.4842 40.6517C74.194 34.2793 79.6033 28.1749 84.9225 31.8387C87.4595 33.6269 88.6805 37.4655 88.1451 40.6517Z" fill="#270722"/>
<path d="M53.7227 1.45621C54.7135 13.0069 54.9386 24.5751 54.9737 36.1549C54.9436 47.7406 54.7185 59.3088 53.7227 70.8537C52.7269 59.3088 52.5017 47.7348 52.4717 36.1549C52.5067 24.5693 52.7319 13.0011 53.7227 1.45621Z" fill="#270722"/>
<path d="M17.7041 41.3565C18.2595 41.275 18.4197 40.5119 18.6448 39.9469C22.2877 30.7029 25.9106 21.4472 29.5385 12.1914C29.7036 11.7662 29.7937 11.0148 30.164 11.1371C30.6544 11.3061 30.4392 12.1041 30.4442 12.6283C30.4592 17.4455 30.4843 22.2568 30.4342 27.074C30.4192 28.5477 30.6594 29.1185 31.6852 29.0661C33.972 28.9496 36.2638 29.0428 38.5557 29.0253C39.3463 29.0195 39.8967 28.9146 39.2262 30.6038C35.2781 40.5352 31.4 50.5249 27.4969 60.4971C27.3668 60.8291 27.2517 61.2892 26.9765 61.1844C26.6012 61.0388 26.7163 60.4563 26.7163 60.0369C26.7063 55.2838 26.6612 50.5365 26.7363 45.7834C26.7613 44.0709 26.436 43.5758 25.3352 43.6282C22.7981 43.7506 20.2561 43.669 17.7141 43.669V41.3565H17.7041Z" fill="#FCFCFC"/>
<path d="M17.7041 41.3565C18.3096 41.1993 18.3696 40.3896 18.5848 39.8304L19.1953 38.0131L20.4463 34.39C23.0483 26.9342 25.9756 18.9017 28.6878 11.5449C28.8579 10.8925 29.1332 10.0945 29.9338 9.97217C30.9096 9.8382 31.5601 10.9158 31.505 11.8361C31.465 15.599 31.6051 22.2044 31.6201 25.9905C31.6351 26.5206 31.5851 27.4468 31.6852 27.9011C31.6852 27.9186 31.6652 27.8254 31.5901 27.7555C31.5251 27.6798 31.435 27.6506 31.44 27.6506C33.1363 27.5982 34.9228 27.5633 36.6041 27.5866C37.3497 27.604 38.4405 27.5458 39.2562 27.5982C40.277 27.6739 40.9776 28.8389 40.7074 30.0097C40.5422 30.8776 40.242 31.4135 39.9818 32.13C36.544 40.809 32.8761 50.0356 29.3183 58.6331L28.5877 60.3922L28.4076 60.8291L28.2274 61.2776C28.1824 61.3824 28.1324 61.4989 28.0373 61.6562C27.2066 63.0018 25.6154 62.029 25.7505 60.5029C25.8255 58.272 25.9656 51.6316 26.0407 49.29L26.1608 45.4165C26.1458 44.9971 26.1958 44.4612 25.8906 44.269C25.6204 44.1117 24.9548 44.1933 24.4094 44.1641C22.1176 44.1175 19.8508 43.9428 17.579 43.7913L17.584 43.669L17.6941 41.3565H17.7041ZM17.7041 41.3565C17.7291 42.1546 17.7791 42.9293 17.8142 43.669L17.7041 43.5409C19.9409 43.3894 22.1826 43.3487 24.3994 43.1681C25.17 43.139 26.1758 42.8128 26.8013 43.6166C27.1766 44.1117 27.2467 44.8049 27.2817 45.3757C27.3267 46.7329 27.3668 47.9911 27.3918 49.3075L27.5769 57.107C27.5869 57.9399 27.637 59.6932 27.617 60.532C27.6069 60.631 27.657 60.6602 27.5769 60.4563C27.4318 60.1243 27.0815 60.0311 26.7863 60.1534C26.5561 60.2641 26.5061 60.3806 26.4911 60.398C26.476 60.4213 26.4911 60.398 26.5061 60.3514C26.6962 59.8155 27.2817 58.237 27.4969 57.6662C30.8645 48.6027 34.5625 39.0383 38.0753 30.0272C38.1753 29.7825 38.2654 29.5088 38.2754 29.433C38.2854 29.3981 38.2754 29.4447 38.2754 29.4855C38.2754 29.8816 38.5206 30.266 38.8259 30.4233C38.946 30.4815 38.971 30.4757 38.971 30.4757C38.9409 30.464 38.5456 30.4757 38.2854 30.4757C36.6641 30.4757 34.8627 30.4233 33.2664 30.4407L31.5751 30.4815C29.7587 30.5456 29.1081 28.7515 29.2282 26.94C29.2583 23.3228 29.3433 16.9212 29.3834 13.304C29.3834 12.8788 29.4084 12.2439 29.4534 11.8303C29.4634 11.7604 29.4284 11.7546 29.5185 11.9584C29.7637 12.5002 30.5143 12.3312 30.6694 11.9584C27.7421 19.4143 24.2343 27.3652 21.0617 34.7337L19.5255 38.2111L18.7449 39.9411C18.4847 40.4653 18.3096 41.3099 17.6941 41.374L17.7041 41.3565Z" fill="#270722"/>
</g>
<defs>
<clipPath id="clip0_108_110">
<rect width="107" height="90" fill="white"/>
</clipPath>
</defs>
</svg>
