<svg width="73" height="90" viewBox="0 0 73 90" fill="none" xmlns="http://www.w3.org/2000/svg">
<g clip-path="url(#clip0_108_144)">
<path d="M65.225 54.0157C72.9645 44.4194 74.5968 30.9323 69.0734 20.0761C61.743 5.19822 43.1826 -2.12778 26.5357 2.94772C2.57124 10.3371 -4.81032 37.3827 10.9074 55.3312C17.7137 64.1073 30.333 80.3679 37.2543 89.2907H36.7131C45.8548 78.1452 56.2537 65.2682 65.225 54.0157ZM65.225 54.0157C56.177 65.399 45.8761 78.5018 36.9901 89.9999C29.2207 80.4076 16.1368 64.5709 8.49523 55.1331C-4.00483 40.4058 -1.69916 18.6418 14.3681 7.03269C32.5876 -6.28803 60.294 0.0355485 69.4783 19.9057C74.7289 30.9284 73.0284 44.4076 65.225 54.0157Z" fill="#270722"/>
<path d="M46.9288 28.4323C46.9885 35.0649 39.6708 39.9265 32.8902 37.6126C23.7016 34.4587 23.6974 22.4019 32.8902 19.2481C39.6708 16.9342 46.9927 21.7997 46.9288 28.4323ZM46.9288 28.4323C46.8734 20.4169 36.4148 16.6846 30.6016 22.501C27.2901 25.746 27.2858 31.1226 30.6016 34.3676C36.4148 40.188 46.8777 36.4477 46.9331 28.4323H46.9288Z" fill="#270722"/>
</g>
<defs>
<clipPath id="clip0_108_144">
<rect width="72" height="90" fill="white" transform="translate(0.5)"/>
</clipPath>
</defs>
</svg>
