<svg width="90" height="87" viewBox="0 0 90 87" fill="none" xmlns="http://www.w3.org/2000/svg">
<g clip-path="url(#clip0_113_304)">
<path d="M7.95489 70.0066C8.76498 76.5462 14.8407 80.7193 20.5066 83.0387L19.8095 82.907C16.6728 82.3283 13.9128 80.4652 11.7275 78.2023C-2.24188 63.2694 -3.165 30.2986 5.96263 12.637C10.0602 4.35199 18.3589 -3.45317 27.9905 1.59972C36.4493 6.38915 40.2784 17.1065 42.1623 26.1208C43.4199 32.491 43.7919 38.9883 43.434 45.4291C39.4777 45.9654 35.5592 46.7699 31.7348 47.9226C22.0985 50.7972 7.15422 58.1836 7.95489 70.0113V70.0066ZM7.95489 70.0066C6.89047 56.6969 26.4221 48.2989 37.1793 45.7443C39.0774 45.2832 40.9896 44.888 42.9112 44.5493L42.5109 45.0009C42.6286 32.7357 40.528 19.8071 33.4492 9.56484C30.854 5.98454 27.3217 2.83236 22.8756 2.35719C15.1185 1.82555 9.87179 9.40959 6.98938 15.7469C-0.0941981 31.6771 -0.414466 54.2457 6.89047 70.1619C9.49029 75.6476 13.569 81.3685 19.8378 82.7564L19.7907 82.907C14.3885 80.4699 8.67549 76.3251 7.95489 70.0113V70.0066Z" fill="#FFFCF7"/>
<path d="M21.4203 10.7315C26.6152 16.0432 28.1035 24.1824 26.7989 31.3241C25.9982 35.8501 24.0484 40.0655 21.6463 43.9093C20.3559 46.2335 19.3668 48.6705 18.4437 51.1875C18.6697 48.026 19.4657 44.8644 20.8033 41.9757C25.5649 32.1663 26.9496 20.5221 21.4203 10.7268V10.7315Z" fill="#FFFCF7"/>
<path d="M50.9462 86.5156C38.955 87.7436 24.9056 86.9626 14.5016 80.3336C5.92967 74.7208 4.89822 65.763 11.7793 58.2072C20.6243 48.793 33.7506 44.9728 46.2081 43.4014C59.0894 42.1076 75.5361 43.3214 85.521 52.4627C89.6844 56.3535 91.3235 62.0839 88.8178 67.3626C82.9259 79.5808 63.5214 85.2077 50.9462 86.5156ZM50.9462 86.5156C63.2906 85.043 78.2961 80.5688 86.0814 70.289C89.7692 65.2267 89.9623 59.3034 85.5586 54.6081C78.8895 47.8144 67.9627 45.8667 58.7692 45.3303C46.5236 44.8505 33.939 46.9064 22.885 52.3075C14.4074 56.3535 3.81967 65.5654 10.5971 75.4642C18.7498 86.3415 38.3804 87.9129 50.9556 86.5156H50.9462Z" fill="#FFFCF7"/>
<path d="M79.7561 61.6321C74.0619 67.9647 64.7412 70.0771 56.5179 68.7551C53.7202 68.3175 50.9979 67.5412 48.3699 66.5203C45.9255 65.4994 43.3351 64.8172 40.7164 64.4032C32.7238 63.0576 24.4251 64.5161 17.3274 68.4775C25.5366 61.745 37.2877 60.3053 47.2536 63.594C50.3904 64.7843 53.5789 65.984 56.8899 66.5626C64.7648 68.0682 73.3366 66.6473 79.7561 61.6368V61.6321Z" fill="#FFFCF7"/>
</g>
<defs>
<clipPath id="clip0_113_304">
<rect width="90" height="87" fill="white"/>
</clipPath>
</defs>
</svg>
