<svg width="89" height="89" viewBox="0 0 89 89" fill="none" xmlns="http://www.w3.org/2000/svg">
<g clip-path="url(#clip0_113_311)">
<path d="M89 44.5057C88.7072 83.904 41.8297 103.662 13.34 76.3333C-4.44473 59.2201 -4.45059 29.7855 13.34 12.6724C41.8238 -14.6618 88.7131 5.11335 89 44.5057ZM89 44.5057C89.1757 27.2288 77.938 10.6539 61.787 4.49904C33.6722 -6.7225 2.75819 14.3223 2.8636 44.5057C2.75234 74.6951 33.6663 95.7457 61.787 84.5125C77.938 78.3576 89.1698 61.7827 89 44.4999V44.5057Z" fill="#FFFCF7"/>
<path d="M71.467 44.5057C71.7481 58.6818 59.4915 71.3192 45.2027 71.4713C34.3808 71.8984 23.7814 65.1175 19.6411 55.0837C16.7834 48.4081 16.7834 40.6033 19.6411 33.9219C23.7755 23.8822 34.3808 17.0954 45.2086 17.5284C59.4973 17.6863 71.7598 30.3296 71.4729 44.5057H71.467ZM71.467 44.5057C71.508 30.236 59.4797 18.4937 45.2027 19.0027C31.6987 19.1783 20.1389 31.1194 20.4024 44.5057C20.1389 57.8978 31.6929 69.8448 45.2027 70.0204C59.4797 70.5235 71.508 58.7813 71.467 44.5057Z" fill="#FFFCF7"/>
<path d="M44.5879 24.397C50.7952 27.2462 53.5359 34.0681 50.0867 40.2288C49.0853 42.1069 47.7677 43.7275 46.3271 45.1902C45.7473 45.7518 44.9099 46.5592 44.418 47.1911C39.6922 52.8779 40.1607 58.8807 44.5879 64.6143C36.5417 58.9684 37.4728 49.2505 44.2541 43.1249C45.56 41.8202 46.7429 40.4043 47.6623 38.889C50.9592 33.7229 48.9037 28.2935 44.5879 24.4028V24.397Z" fill="#FFFCF7"/>
<path d="M68.7088 56.2129C70.2607 54.2705 71.9589 52.5445 73.6513 50.842C75.8356 48.5427 78.2893 46.5769 79.97 43.9967C80.0754 43.8212 80.093 43.675 80.1105 43.7042C80.1105 43.7861 80.2511 44.0318 80.3389 44.0552C80.4092 44.0728 80.2745 43.9792 80.0871 43.9441C77.2996 43.5872 74.3189 44.3419 71.467 44.5116C72.4977 43.8095 73.5986 43.242 74.7347 42.7389C75.8766 42.2415 77.0478 41.8261 78.3303 41.557C79.4781 41.3698 80.6844 41.1241 81.8966 41.8671C86.804 45.7636 71.9882 55.1247 68.7088 56.2246V56.2129Z" fill="#FFFCF7"/>
</g>
<defs>
<clipPath id="clip0_113_311">
<rect width="89" height="89" fill="white"/>
</clipPath>
</defs>
</svg>
