<svg width="107" height="90" viewBox="0 0 107 90" fill="none" xmlns="http://www.w3.org/2000/svg">
<g clip-path="url(#clip0_110_241)">
<path d="M106.194 80.6046C106.274 86.8197 100.76 91.5786 95.6159 89.5108C88.3301 86.6158 88.3251 74.5875 95.6159 71.6925C100.765 69.6247 106.279 74.3895 106.199 80.6046H106.194ZM106.194 80.6046C106.284 76.0554 102.637 72.176 98.7835 72.7119C90.607 73.9409 90.607 87.2799 98.7835 88.5089C102.637 89.039 106.279 85.1596 106.194 80.6046Z" fill="#FFFCF7"/>
<path d="M19.9158 80.6046C19.9959 86.8197 14.4815 91.5786 9.33743 89.5108C2.05165 86.6158 2.04664 74.5875 9.33743 71.6925C14.4865 69.6247 20.0009 74.3895 19.9208 80.6046H19.9158ZM19.9158 80.6046C20.0059 76.0554 16.358 72.176 12.5049 72.7119C4.32845 73.9409 4.32845 87.2799 12.5049 88.5089C16.358 89.039 20.0009 85.1596 19.9158 80.6046Z" fill="#FFFCF7"/>
<path d="M106.194 70.8595C72.2174 71.3721 35.193 71.9604 1.256 72.141H0.160127V70.8537L0.0550437 36.1549L0 1.45622V0H1.25099C34.1321 0.0291243 73.3132 0.180571 106.194 0.524238L107 0.530063L106.99 1.45039C106.905 20.8705 106.375 51.218 106.189 70.8537L106.194 70.8595ZM106.194 70.8595C105.879 51.2122 105.614 20.8705 105.394 1.45622L106.194 2.38819C93.104 2.53964 66.8081 2.70856 53.7227 2.77846C40.6573 2.84836 14.3214 2.89496 1.25099 2.91243L2.50199 1.45622C2.517 18.7561 2.40691 53.5655 2.35187 70.8595L1.25099 69.578C35.1379 69.7761 72.2174 70.3469 106.189 70.8595H106.194Z" fill="#FFFCF7"/>
<path d="M103.722 7.80542H70.7662V40.4014H103.722V7.80542Z" fill="#1F3A31"/>
<path d="M103.727 40.4013C94.3349 40.7857 80.0636 41.4614 70.7712 41.5895L69.7754 41.6128C69.6503 36.4112 69.6553 29.3748 69.5752 24.1033L69.5202 7.8053V6.34326C74.8695 6.39569 81.9451 6.35491 87.2493 6.44228C92.4834 6.52966 99.504 6.59373 104.673 6.74518C104.583 16.7115 104.038 30.3242 103.727 40.4013ZM103.727 40.4013C103.402 31.0407 102.962 17.0377 102.797 7.8053L103.727 8.88873C100.98 8.94115 98.233 9.02852 95.4858 9.05765C87.8097 9.19162 78.4423 9.23822 70.7662 9.26152L72.0172 7.8053C72.0022 13.2166 71.9621 27.0215 71.8821 32.2523C71.8521 34.9667 71.8421 37.6869 71.787 40.4013L70.7662 39.213C79.9135 39.3994 94.47 39.9935 103.722 40.4013H103.727Z" fill="#FFFCF7"/>
<path d="M102.486 30.8018C102.511 34.1744 101.611 41.7526 97.3323 39.8129C92.6536 36.7257 92.6436 24.8779 97.3323 21.7849C101.641 19.8744 102.501 27.3943 102.486 30.8018ZM102.486 30.8018C102.461 28.2738 101.931 25.5187 100.39 23.6838C99.7793 22.9499 98.8035 22.5597 98.1079 23.2936C95.736 25.5536 95.5009 37.4771 98.7835 38.7004C101.461 38.7237 102.541 33.3182 102.486 30.796V30.8018Z" fill="#FFFCF7"/>
<path d="M85.0276 21.2199C85.0476 24.1498 84.5272 32.5784 80.4589 30.0737C76.5508 26.6603 76.5408 15.7736 80.4589 12.3603C84.5372 9.84974 85.0476 18.2841 85.0276 21.2199ZM85.0276 21.2199C84.9975 18.7851 84.5822 16.1639 83.2812 14.23C82.8108 13.5311 81.9601 12.8961 81.3897 13.7466C79.6233 15.9251 79.3481 27.7612 81.9051 29.1067C82.4105 29.2058 82.9459 28.699 83.2812 28.2155C84.5822 26.2759 84.9925 23.6547 85.0226 21.2257L85.0276 21.2199Z" fill="#FFFCF7"/>
<path d="M88.1451 40.6515C87.6046 36.9527 85.2027 33.1433 81.9051 33.3297C78.8427 33.5568 76.9161 37.2615 76.8411 40.6515L75.6651 39.2827C79.6683 39.4225 84.0868 40.1156 88.1451 40.6515ZM88.1451 40.6515C83.6865 41.4437 79.1029 41.9621 74.5142 42.0612L74.4842 40.6515C74.194 34.2791 79.6033 28.1747 84.9225 31.8385C87.4595 33.6267 88.6805 37.4653 88.1451 40.6515Z" fill="#FFFCF7"/>
<path d="M53.7227 1.4563C54.7135 13.007 54.9386 24.5752 54.9737 36.155C54.9436 47.7407 54.7185 59.3089 53.7227 70.8538C52.7269 59.3089 52.5017 47.7349 52.4717 36.155C52.5067 24.5694 52.7319 13.0012 53.7227 1.4563Z" fill="#FFFCF7"/>
<path d="M17.7041 41.3567C18.2595 41.2752 18.4197 40.5121 18.6448 39.9471C22.2877 30.703 25.9106 21.4473 29.5385 12.1916C29.7036 11.7664 29.7937 11.015 30.164 11.1373C30.6544 11.3062 30.4392 12.1042 30.4442 12.6285C30.4592 17.4456 30.4843 22.257 30.4342 27.0741C30.4192 28.5478 30.6594 29.1187 31.6852 29.0662C33.972 28.9498 36.2638 29.0429 38.5557 29.0255C39.3463 29.0196 39.8967 28.9148 39.2262 30.604C35.2781 40.5354 31.4 50.5251 27.4969 60.4972C27.3668 60.8292 27.2517 61.2894 26.9765 61.1846C26.6012 61.0389 26.7163 60.4564 26.7163 60.0371C26.7063 55.284 26.6612 50.5367 26.7363 45.7836C26.7613 44.0711 26.436 43.576 25.3352 43.6284C22.7981 43.7507 20.2561 43.6692 17.7141 43.6692V41.3567H17.7041Z" fill="#1F3A31"/>
<path d="M17.7041 41.3567C18.3096 41.1994 18.3696 40.3897 18.5848 39.8306L19.1953 38.0132L20.4463 34.3901C23.0483 26.9343 25.9756 18.9018 28.6878 11.545C28.8579 10.8926 29.1332 10.0946 29.9338 9.97229C30.9096 9.83832 31.5601 10.9159 31.505 11.8362C31.465 15.5991 31.6051 22.2045 31.6201 25.9907C31.6351 26.5207 31.5851 27.4469 31.6852 27.9012C31.6852 27.9187 31.6652 27.8255 31.5901 27.7556C31.5251 27.6799 31.435 27.6508 31.44 27.6508C33.1363 27.5983 34.9228 27.5634 36.6041 27.5867C37.3497 27.6042 38.4405 27.5459 39.2562 27.5983C40.277 27.6741 40.9776 28.839 40.7074 30.0098C40.5422 30.8777 40.242 31.4136 39.9818 32.1301C36.544 40.8091 32.8761 50.0357 29.3183 58.6332L28.5877 60.3923L28.4076 60.8292L28.2274 61.2777C28.1824 61.3826 28.1324 61.4991 28.0373 61.6563C27.2066 63.0019 25.6154 62.0291 25.7505 60.503C25.8255 58.2721 25.9656 51.6317 26.0407 49.2901L26.1608 45.4166C26.1458 44.9972 26.1958 44.4613 25.8906 44.2691C25.6204 44.1118 24.9548 44.1934 24.4094 44.1643C22.1176 44.1177 19.8508 43.9429 17.579 43.7915L17.584 43.6691L17.6941 41.3567H17.7041ZM17.7041 41.3567C17.7291 42.1547 17.7791 42.9294 17.8142 43.6691L17.7041 43.541C19.9409 43.3895 22.1826 43.3488 24.3994 43.1682C25.17 43.1391 26.1758 42.8129 26.8013 43.6167C27.1766 44.1118 27.2467 44.805 27.2817 45.3758C27.3267 46.733 27.3668 47.9912 27.3918 49.3076L27.5769 57.1071C27.5869 57.9401 27.637 59.6933 27.617 60.5321C27.6069 60.6312 27.657 60.6603 27.5769 60.4564C27.4318 60.1244 27.0815 60.0312 26.7863 60.1535C26.5561 60.2642 26.5061 60.3807 26.4911 60.3982C26.476 60.4215 26.4911 60.3982 26.5061 60.3516C26.6962 59.8157 27.2817 58.2371 27.4969 57.6663C30.8645 48.6028 34.5625 39.0384 38.0753 30.0273C38.1753 29.7827 38.2654 29.5089 38.2754 29.4332C38.2854 29.3982 38.2754 29.4448 38.2754 29.4856C38.2754 29.8817 38.5206 30.2661 38.8259 30.4234C38.946 30.4816 38.971 30.4758 38.971 30.4758C38.9409 30.4642 38.5456 30.4758 38.2854 30.4758C36.6641 30.4758 34.8627 30.4234 33.2664 30.4409L31.5751 30.4816C29.7587 30.5457 29.1081 28.7517 29.2282 26.9401C29.2583 23.3229 29.3433 16.9214 29.3834 13.3041C29.3834 12.8789 29.4084 12.244 29.4534 11.8304C29.4634 11.7605 29.4284 11.7547 29.5185 11.9586C29.7637 12.5003 30.5143 12.3314 30.6694 11.9586C27.7421 19.4144 24.2343 27.3653 21.0617 34.7338L19.5255 38.2112L18.7449 39.9412C18.4847 40.4655 18.3096 41.3101 17.6941 41.3741L17.7041 41.3567Z" fill="#FFFCF7"/>
</g>
<defs>
<clipPath id="clip0_110_241">
<rect width="107" height="90" fill="white"/>
</clipPath>
</defs>
</svg>
