<svg width="135" height="135" viewBox="0 0 135 135" fill="none" xmlns="http://www.w3.org/2000/svg">
<g id="ep:arrow-up-bold">
<path id="Vector" d="M121.196 44.6597C119.614 43.0779 117.468 42.1893 115.231 42.1893C112.994 42.1893 110.848 43.0779 109.266 44.6597L67.5 86.4253L25.7344 44.6597C24.143 43.1227 22.0117 42.2723 19.7994 42.2915C17.5871 42.3107 15.4709 43.1981 13.9065 44.7625C12.3421 46.3268 11.4548 48.4431 11.4356 50.6554C11.4163 52.8676 12.2668 54.999 13.8037 56.5903L61.5347 104.321C63.1169 105.903 65.2627 106.792 67.5 106.792C69.7373 106.792 71.883 105.903 73.4653 104.321L121.196 56.5903C122.778 55.008 123.667 52.8623 123.667 50.625C123.667 48.3877 122.778 46.2419 121.196 44.6597Z" fill="#270722"/>
</g>
</svg>
