<svg width="51" height="42" viewBox="0 0 51 42" fill="none" xmlns="http://www.w3.org/2000/svg">
<g id="filtre 1" clip-path="url(#clip0_922_618)">
<g id="Calque 1">
<path id="Vector" d="M51 1.1198C44.7906 8.42072 38.1013 16.6984 31.6469 23.8118L31.8669 23.21C32.1668 28.9077 32.6168 36.3517 32.8618 41.9951C32.1219 41.7435 23.3027 38.611 22.2978 38.2607L21.5229 37.9894V37.1656L21.4679 23.1607L21.7879 23.9796C14.6386 16.2593 7.04931 7.84849 0 0C16.6984 0.0789288 34.3316 0.804087 51 1.1198ZM51 1.1198C39.2212 1.29739 26.1024 1.79563 14.3736 2.03242C11.4189 2.11135 5.44947 2.19027 2.49476 2.21494L3.31967 0.384778C9.82904 7.35025 17.2033 15.3369 23.6327 22.3369L23.9576 22.692V23.1607L23.9077 37.1656L23.1327 36.0655L32.0819 39.4151L30.607 40.4757C30.452 35.5278 30.287 28.3108 30.172 23.284L30.162 22.9239L30.392 22.6822C36.9714 15.7759 44.5006 8.08034 51.01 1.12474L51 1.1198Z" fill="#270722"/>
</g>
</g>
<defs>
<clipPath id="clip0_922_618">
<rect width="51" height="42" fill="white"/>
</clipPath>
</defs>
</svg>
