<svg width="51" height="50" viewBox="0 0 51 50" fill="none" xmlns="http://www.w3.org/2000/svg">
<g clip-path="url(#clip0_96_238)">
<path d="M25.7247 49.9997C25.095 46.3361 24.4404 42.5003 25.5111 38.8397C26.5707 35.1585 29.3833 32.2627 32.6397 30.6484C35.8517 29.0078 39.4382 28.3656 42.678 26.906C48.1534 24.6115 49.6263 19.4124 48.9994 13.6411C48.1589 6.36651 43.5517 -0.94024 35.7741 2.09281C30.9172 3.98736 27.4583 8.64348 25.7053 13.6791L25.0562 15.5503C23.7914 11.5131 21.8691 7.51375 18.7792 4.74052C14.9874 1.17326 9.15418 -0.233794 5.39572 4.15376C2.01449 8.08008 0.75797 14.1608 1.72602 19.3131C3.87569 30.3302 16.7987 26.4652 22.8927 34.6973C25.9937 38.8834 27.4611 44.9028 25.7247 49.9968V49.9997ZM25.7247 49.9997C27.5221 44.1438 24.9425 36.2065 20.0884 32.759C17.9193 31.1797 15.4007 30.3331 12.8655 29.5712C9.44819 28.5261 5.67864 27.6737 3.13787 24.7574C-0.554024 20.3932 -0.273873 13.3784 1.60397 8.20852C3.82576 2.14243 8.67431 -1.63209 14.9014 0.69451C20.1827 2.69124 23.833 7.82903 25.708 13.177H24.4071C26.8148 6.13881 33.2 -0.989866 40.9 0.166136C48.367 1.67244 51.3072 12.3188 49.9258 19.2664C48.048 28.7801 39.735 28.1291 32.9282 31.2935C29.7467 32.759 26.9868 35.4446 25.8634 38.9593C24.7234 42.512 25.2504 46.3566 25.7275 50.0027L25.7247 49.9997Z" fill="#FFFCF7"/>
</g>
<defs>
<clipPath id="clip0_96_238">
<rect width="50" height="50" fill="white" transform="translate(0.255371)"/>
</clipPath>
</defs>
</svg>
