<svg width="400" height="82" viewBox="0 0 400.86899 82.996117" fill="red"
   xmlns="http://www.w3.org/2000/svg">
   <path d="m 31.3755,66.084994 v 1.8617 H 0 V 9.4763941 H 5.8525 V 66.084994 Z" />
   <path d="m 79.961,67.953894 h -4.0732 l -6.7839,-17.7974 H 47.2231 l -6.7839,17.7974 h -0.5908 l 19.0032,-50.0856 h 2.0366 l 19.0797,50.0856 z m -32.3904,-18.9019 h 21.1163 l -10.5164,-27.884 z" />
   <path d="m 151.25977,0.00380033 c -5.30503,-0.12135188 -10.21121,2.67582627 -13.99024,6.62890627 -6.31626,2.8598441 -15.39956,7.1361534 -28.75391,13.7421874 -1.85598,2.139596 -8.12059,9.886391 -8.43359,21.605469 -0.347096,12.872174 6.73061,21.479416 8.43359,23.445312 l 29.39844,11.525391 c 5.49588,5.429853 12.87318,8.255264 20.72852,3.945312 3.95312,-2.357303 6.99868,-5.815346 9.37422,-9.79111 2.85154,-4.77241 3.99058,-10.112934 6.06914,-15.54678 l 2.05859,-5.402344 h 21.88086 l 6.78516,17.796875 h 4.07226 L 189.80469,17.869035 h -2.03711 l -17.70413,46.677587 c -1.37194,3.266344 -2.62083,5.326422 -4.36936,7.715143 -2.1831,2.863606 -4.77981,5.31669 -7.91284,7.050629 -10.73898,5.522688 -20.23264,-3.933023 -24.30664,-13.345703 -7.02698,-16.012168 -6.79003,-36.635657 1.50195,-52.140625 5.359,-9.8781508 15.5968,-16.2554891 25.80078,-8.6210938 4.337,3.2093628 7.47963,7.9746158 9.72461,12.8789058 0.771,1.660298 1.45183,3.361773 2.04883,5.105469 -2.349,-8.794582 -6.99805,-18.2149301 -15.83203,-22.0078123 -1.84556,-0.76717327 -3.67514,-1.13692941 -5.45898,-1.17773437 z m 35.83398,21.16406267 10.51563,27.884765 h -21.11719 z" />
   <path d="M 233.308,43.716894 H 221.86 v 24.237 h -4.497 v -50.0856 h 15.945 c 1.981,0 3.747,0.3404 5.297,1.0142 1.557,0.6808 2.884,1.6116 3.982,2.7995 1.099,1.1879 1.954,2.5564 2.544,4.1125 0.591,1.556 0.89,3.2093 0.89,4.9599 0,1.7506 -0.299,3.4178 -0.89,5.0016 -0.59,1.5839 -1.438,2.9663 -2.544,4.1541 -1.105,1.1879 -2.432,2.1188 -3.982,2.7996 -1.557,0.6807 -3.323,1.0142 -5.297,1.0142 z m -4.156,-1.1045 c 2.036,0 3.83,-0.3265 5.387,-0.9725 1.556,-0.6461 2.842,-1.5283 3.857,-2.6259 1.015,-1.0976 1.793,-2.3758 2.329,-3.8137 0.535,-1.438 0.806,-2.9246 0.806,-4.4528 0,-1.5283 -0.257,-3.008 -0.765,-4.4459 -0.507,-1.438 -1.286,-2.7092 -2.335,-3.8138 -1.05,-1.1045 -2.349,-1.9798 -3.899,-2.6258 -1.557,-0.646 -3.351,-0.9725 -5.387,-0.9725 h -7.292 v 23.7229 h 7.292 z" />
   <path d="m 254.932,61.597694 c 2.037,2.3202 4.296,3.7721 6.784,4.3625 2.489,0.5905 5.144,0.8892 7.973,0.8892 1.918,0 3.691,-0.1806 5.296,-0.5488 1.613,-0.3682 3.01,-0.9586 4.198,-1.7783 1.189,-0.8198 2.12,-1.9104 2.802,-3.265 0.681,-1.3546 1.014,-2.994 1.014,-4.9182 0,-1.6395 -0.424,-3.0496 -1.272,-4.2375 -0.848,-1.1879 -1.925,-2.2021 -3.225,-3.0496 -1.299,-0.8475 -2.71,-1.5561 -4.24,-2.1188 -1.529,-0.5626 -2.94,-1.0142 -4.24,-1.3546 -0.848,-0.2223 -1.737,-0.4515 -2.669,-0.6807 -0.931,-0.2223 -1.883,-0.4794 -2.842,-0.7642 -2.774,-0.8475 -4.963,-2.1465 -6.576,-3.8971 -1.612,-1.7505 -2.419,-4.1819 -2.419,-7.287 0,-2.2577 0.355,-4.307 1.057,-6.1409 0.709,-1.8339 1.71,-3.4178 3.009,-4.7446 1.3,-1.3268 2.857,-2.3619 4.664,-3.0913 1.808,-0.7363 3.816,-1.1045 6.02,-1.1045 1.355,0 2.558,0.0834 3.607,0.257 1.043,0.1667 1.995,0.4377 2.843,0.8058 0.848,0.3682 1.654,0.8475 2.419,1.438 0.764,0.5905 1.571,1.3129 2.419,2.1604 l -0.424,0.5071 c -0.682,-0.6807 -1.37,-1.2712 -2.079,-1.7783 -0.709,-0.5071 -1.473,-0.9309 -2.286,-1.2713 -0.821,-0.3404 -1.752,-0.6043 -2.802,-0.8058 -1.049,-0.1945 -2.279,-0.2987 -3.69,-0.2987 -1.752,0 -3.448,0.257 -5.088,0.7641 -1.641,0.5072 -3.093,1.2435 -4.365,2.2021 -1.272,0.9587 -2.28,2.1327 -3.01,3.5151 -0.737,1.3824 -1.105,2.9523 -1.105,4.7029 0,1.7505 0.452,3.2232 1.355,4.4042 0.904,1.1879 2.051,2.1743 3.434,2.9662 1.383,0.7919 2.898,1.4102 4.539,1.8617 1.64,0.4516 3.162,0.8197 4.58,1.1046 2.377,0.5626 4.539,1.2573 6.485,2.077 1.953,0.8197 3.601,1.7923 4.963,2.9246 1.355,1.1323 2.419,2.4869 3.183,4.0707 0.765,1.5839 1.147,3.4734 1.147,5.6755 0,2.0353 -0.438,3.8415 -1.313,5.4253 -0.876,1.5839 -2.065,2.9246 -3.559,4.0291 -1.501,1.1045 -3.267,1.9381 -5.297,2.5008 -2.036,0.5627 -4.212,0.8475 -6.526,0.8475 -3.281,0 -6.096,-0.3543 -8.438,-1.0559 -2.35,-0.7085 -4.421,-2.1326 -6.235,-4.2791 l -0.508,-0.5905 0.424,-0.4238 z" />
   <path d="m 330.654,17.868294 v 32.969 c 0,2.1465 -0.396,4.2375 -1.189,6.2728 -0.792,2.0354 -1.911,3.8555 -3.35,5.4671 -1.439,1.6116 -3.17,2.9106 -5.171,3.8971 -2.009,0.9864 -4.226,1.4796 -6.659,1.4796 h -2.968 c -2.433,0 -4.664,-0.4932 -6.701,-1.4796 -2.036,-0.9865 -3.774,-2.2855 -5.213,-3.8971 -1.438,-1.6116 -2.558,-3.4317 -3.35,-5.4671 -0.792,-2.0353 -1.188,-4.1263 -1.188,-6.2728 v -32.969 h 4.497 v 33.4761 c 0,1.7506 0.34,3.5567 1.014,5.4254 0.682,1.8617 1.669,3.5289 2.968,5.0016 1.3,1.4727 2.913,2.6814 4.831,3.647 1.919,0.9586 4.129,1.4379 6.617,1.4379 2.489,0 4.692,-0.4654 6.617,-1.3962 1.919,-0.9309 3.531,-2.1466 4.831,-3.6471 1.3,-1.4935 2.287,-3.1607 2.968,-5.0016 0.681,-1.8339 1.015,-3.6609 1.015,-5.467 v -33.4761 h 0.424 z" />
   <path d="m 365.761,66.849394 v 1.1045 h -26.628 v -50.0856 h 4.497 v 48.9811 z" />
   <path d="m 400.869,66.849394 v 1.1045 h -26.628 v -50.0856 h 25.523 v 1.0142 h -21.033 v 21.8682 h 14.249 v 1.1045 h -14.249 v 25.0011 h 22.131 z" />
   <path d="m 147.698,11.365694 c 7.166,4.4528 11.33,12.7055 7.667,20.84 -1.474,3.39 -3.795,6.3493 -6.374,8.9613 -0.911,0.8892 -2.21,2.1465 -2.982,3.1468 -7.27,9.0099 -6.415,19.0756 1.689,27.2033 -10.28,-9.385 -9.029,-21.6945 0.799,-30.8433 9.822,-9.517 10.871,-20.8123 -0.806,-29.3081 z" />
</svg>