<svg width="51" height="50" viewBox="0 0 51 50" fill="none" xmlns="http://www.w3.org/2000/svg">
<path d="M30.9227 41.5514C34.2315 40.2778 37.4773 38.3848 39.7974 35.3362C41.7724 32.7461 42.6725 29.1398 41.4646 25.8821C40.0236 21.9594 36.6705 19.4578 33.3478 17.8839C25.6506 14.4466 16.5754 14.5592 9.02281 18.4175C4.20072 20.895 -0.593381 26.3728 2.2024 32.7488C4.8303 38.3446 10.8299 40.9105 16.0018 42.0393C18.3732 42.9483 23.1346 44.8091 25.5014 45.7341C27.8658 46.6565 32.6249 48.5467 34.9847 49.4852L34.7865 49.764L30.9251 41.5514H30.9227ZM30.9227 41.5514L35.0756 49.5737L35.2948 49.9973C32.6972 49.0857 27.8891 47.3831 25.2939 46.4554C22.9085 45.5974 18.1074 43.876 15.7266 43.0046C10.4965 42.0313 4.01418 39.2669 1.2114 33.3306C-0.819562 28.8905 0.570169 24.0803 3.67608 20.8575C11.203 13.1462 24.7156 12.5134 33.7069 16.8946C37.1905 18.6293 40.6858 21.3615 42.1152 25.5899C43.3324 29.1613 42.3321 32.9365 40.1122 35.658C37.6755 38.6556 34.3178 40.4708 30.9251 41.554L30.9227 41.5514Z" fill="#FFFCF7"/>
<path d="M36.9853 28.3943C34.6582 33.2045 30.1043 35.5962 25.6226 33.0222C24.0347 32.1642 22.6613 30.8638 21.4278 29.4856C20.9871 28.9628 20.3505 28.204 19.8515 27.7616C15.2649 23.5279 10.5105 23.989 6.16406 28.3943C10.8299 21.8977 17.4731 22.6431 22.2532 28.5391C27.0916 34.2207 32.3917 34.8535 36.9853 28.3943Z" fill="#FFFCF7"/>
<path d="M36.9621 28.3758C38.944 23.2171 41.1429 18.179 43.3791 13.1624L45.6525 8.1726L46.6808 8.8027C43.6216 15.345 40.3967 22.1071 36.9621 28.3758ZM36.9621 28.3758C38.9417 23.2144 41.1429 18.1764 43.3767 13.1597L45.6502 8.16992L46.6785 8.80002C43.6192 15.3423 40.3921 22.1017 36.9597 28.3732L36.9621 28.3758Z" fill="#FFFCF7"/>
<path d="M39.9723 21.8683C39.6529 15.6826 41.6722 9.41656 45.2444 4.79408C46.6901 2.92257 48.4413 1.37012 50.2531 0C50.281 2.57668 50.0595 5.15605 49.6608 7.68447C48.6861 13.6663 46.0745 21.3884 39.9723 21.871V21.8683ZM39.9723 21.8683C47.2987 20.2408 48.8587 8.41913 49.0872 1.26287L49.9896 1.82057C44.1368 6.20174 40.4503 13.8943 39.9723 21.8683Z" fill="#FFFCF7"/>
</svg>
