<svg width="48" height="50" viewBox="0 0 48 50" fill="none" xmlns="http://www.w3.org/2000/svg">
<g clip-path="url(#clip0_96_240)">
<path d="M46.7539 37.5368C35.2798 37.6836 17.992 37.9728 6.6426 38.0122C6.61196 31.2613 6.5638 18.1779 6.56599 11.4291V10.8813H7.11321C19.533 10.8923 34.3364 10.9405 46.7561 11.0544L47.1348 11.0566L47.1304 11.4291C47.0823 18.7388 46.8503 30.1482 46.7561 37.5368H46.7539ZM46.7539 37.5368C46.6095 30.146 46.4803 18.7323 46.3796 11.4291L46.7539 11.8038C34.3342 11.9178 19.533 11.966 7.11102 11.9769L7.65824 11.4291L7.63854 24.4819L7.58382 37.5346L7.11321 37.0635C18.154 37.1402 35.5862 37.3593 46.7561 37.5346L46.7539 37.5368Z" fill="#FFFCF7"/>
<path d="M7.11096 19.635C6.59001 13.2828 6.52653 6.90872 6.58563 0.539025L7.11096 1.0649C6.1194 1.04299 4.68787 0.972874 3.68317 0.907139C2.53619 0.819493 1.39359 0.720891 0.255371 0.539025C1.39359 0.357159 2.53619 0.258556 3.68317 0.17091C4.90019 0.098602 6.42365 0.0153381 7.62973 0C7.64943 1.77045 7.66475 3.5431 7.65381 5.31136C7.62097 10.0903 7.51153 14.867 7.11096 19.6328V19.635Z" fill="#FFFCF7"/>
<path d="M7.11092 22.4683C7.19847 27.4181 7.32105 37.3637 7.37577 42.3092L7.11092 42.0441C8.76353 41.9915 10.4139 41.9323 12.0666 41.8994C20.2771 41.7132 28.6342 41.7154 36.8426 41.9126C40.1456 41.998 43.4486 42.1076 46.7538 42.3092C43.4508 42.5108 40.1478 42.6181 36.8426 42.7058C28.6342 42.9008 20.2771 42.9052 12.0666 42.7189C10.3264 42.6861 8.58404 42.6225 6.84387 42.5677L6.84606 42.3114C6.90078 37.3703 7.02555 27.4115 7.11092 22.4705V22.4683Z" fill="#FFFCF7"/>
<path d="M13.5944 46.4655C13.6295 48.8034 11.2173 50.5936 8.96713 49.8158C5.78012 48.7267 5.77793 44.202 8.96713 43.113C11.2195 42.3351 13.6317 44.1275 13.5966 46.4655H13.5944ZM13.5944 46.4655C13.6338 44.7542 12.0381 43.2949 10.3527 43.4965C6.77606 43.9588 6.77606 48.9765 10.3527 49.4389C12.0381 49.6383 13.6317 48.179 13.5944 46.4677V46.4655Z" fill="#FFFCF7"/>
<path d="M45.9812 46.172C46.0162 48.51 43.604 50.3002 41.3539 49.5223C38.1668 48.4333 38.1646 43.9085 41.3539 42.8195C43.6062 42.0417 46.0184 43.834 45.9834 46.172H45.9812ZM45.9812 46.172C46.0206 44.4607 44.4249 43.0014 42.7394 43.203C39.1628 43.6653 39.1628 48.6831 42.7394 49.1454C44.4249 49.3448 46.0184 47.8855 45.9812 46.1742V46.172Z" fill="#FFFCF7"/>
</g>
<defs>
<clipPath id="clip0_96_240">
<rect width="46.875" height="50" fill="white" transform="translate(0.255371)"/>
</clipPath>
</defs>
</svg>
