<svg width="36" height="30" viewBox="0 0 36 30" fill="none" xmlns="http://www.w3.org/2000/svg">
<g id="search 1" clip-path="url(#clip0_276_934)">
<g id="Calque 1">
<g id="Group">
<path id="Vector" d="M24.5742 12.1227C24.7022 18.4889 19.1213 24.1642 12.6151 24.2325C7.68743 24.4243 2.86112 21.3791 0.975928 16.8731C-0.325309 13.8752 -0.325309 10.3702 0.975928 7.36965C2.85579 2.86098 7.68743 -0.184209 12.6151 0.00759382C19.1213 0.0785344 24.7048 5.75641 24.5742 12.1227ZM24.5742 12.1227C24.5928 5.71437 19.1159 0.44112 12.6151 0.669706C6.46619 0.748529 1.20258 6.10849 1.32257 12.1227C1.20258 18.1369 6.46352 23.5021 12.6151 23.5809C19.1159 23.8069 24.5928 18.5336 24.5742 12.1227Z" fill="#270722"/>
<path id="Vector_2" d="M12.3377 3.0918C15.1642 4.37136 16.4121 7.43494 14.8415 10.2016C14.3856 11.045 13.7856 11.7728 13.1297 12.4297C12.8657 12.6819 12.4844 13.0445 12.2604 13.3283C10.1085 15.8821 10.3219 18.5779 12.3377 21.1528C8.67399 18.6173 9.09795 14.2531 12.1857 11.5022C12.7803 10.9163 13.319 10.2804 13.7376 9.59994C15.2388 7.27992 14.3029 4.84167 12.3377 3.09442V3.0918Z" fill="#270722"/>
<path id="Vector_3" d="M22.353 18.9619C24.9502 20.3886 27.302 22.1358 29.6005 23.9724C31.8777 25.8326 34.0748 27.7638 36.0027 29.9971C33.4029 28.5704 31.051 26.8232 28.7552 24.9866C26.4807 23.1238 24.2809 21.1926 22.353 18.9619Z" fill="#270722"/>
</g>
</g>
</g>
<defs>
<clipPath id="clip0_276_934">
<rect width="36" height="30" fill="white"/>
</clipPath>
</defs>
</svg>
