<svg width="51" height="50" viewBox="0 0 51 50" fill="none" xmlns="http://www.w3.org/2000/svg">
<g clip-path="url(#clip0_96_248)">
<path d="M37.7828 15.3953C37.9161 23.4965 32.1436 30.7123 25.4377 30.7753C20.3713 31.0004 15.4185 27.1314 13.4853 21.4135C12.152 17.6135 12.1495 13.1742 13.4853 9.37419C15.4136 3.65622 20.3689 -0.215793 25.4377 0.00932402C32.1436 0.0753584 37.9161 7.29111 37.7828 15.3953ZM37.7828 15.3953C37.805 7.22808 32.151 0.498578 25.4377 0.765717C19.0628 0.840756 13.584 7.69632 13.7099 15.3953C13.584 23.0943 19.0603 29.9589 25.4377 30.0309C32.1535 30.2921 37.805 23.5656 37.7828 15.3953Z" fill="#FFFCF7"/>
<path d="M50.1279 49.2618C50.0538 46.1882 48.4268 43.5739 46.5133 41.7339C40.6839 36.3491 32.5979 34.8784 25.4378 34.8694C18.2011 35.0645 10.4385 36.6103 4.63632 42.1301C2.86604 43.9371 1.36982 46.3713 1.35253 49.2588L0.745156 48.5205C4.82397 48.5295 8.90031 48.5415 12.9865 48.5895C24.6822 48.6885 38.3828 48.9857 50.1254 49.2588L50.1279 49.2618ZM50.1279 49.2618C38.41 49.538 24.865 49.8381 13.1964 49.9312C8.84599 49.9822 4.48571 49.9912 0.130371 50.0032L0.140247 49.2648C0.169875 44.2312 3.69563 40.5783 7.06336 38.4052C12.6927 34.8183 19.1442 33.6297 25.4353 33.6387C32.8547 33.8398 40.8592 35.5357 46.7478 41.3918C48.6292 43.3668 50.197 46.1372 50.1254 49.2648L50.1279 49.2618Z" fill="#FFFCF7"/>
</g>
<defs>
<clipPath id="clip0_96_248">
<rect width="50" height="50" fill="white" transform="translate(0.130371)"/>
</clipPath>
</defs>
</svg>
